<mxfile host="app.diagrams.net" modified="2023-10-30T07:01:40.611Z" agent="Mozilla/5.0 (Windows NT 10.0; Win64; x64) AppleWebKit/537.36 (KHTML, like Gecko) Chrome/118.0.0.0 Safari/537.36" etag="43pnIyC7sTk2xt2Q9YKu" version="22.0.8" type="device">
  <diagram name="Страница — 1" id="SXsJjnrFFyl-1Xk1E6Tx">
    <mxGraphModel dx="989" dy="545" grid="1" gridSize="10" guides="1" tooltips="1" connect="1" arrows="1" fold="1" page="1" pageScale="1" pageWidth="827" pageHeight="1169" math="0" shadow="0">
      <root>
        <mxCell id="0" />
        <mxCell id="1" parent="0" />
        <mxCell id="3Qwjghfozt2sNwzA8H1o-1" value="UI" style="rounded=0;whiteSpace=wrap;html=1;" vertex="1" parent="1">
          <mxGeometry x="80" y="320" width="100" height="60" as="geometry" />
        </mxCell>
        <mxCell id="3Qwjghfozt2sNwzA8H1o-3" value="" style="endArrow=classic;startArrow=classic;html=1;rounded=0;" edge="1" parent="1">
          <mxGeometry width="50" height="50" relative="1" as="geometry">
            <mxPoint x="180" y="349.76" as="sourcePoint" />
            <mxPoint x="250" y="349.76" as="targetPoint" />
          </mxGeometry>
        </mxCell>
        <mxCell id="3Qwjghfozt2sNwzA8H1o-4" value="API" style="rounded=0;whiteSpace=wrap;html=1;" vertex="1" parent="1">
          <mxGeometry x="250" y="320" width="100" height="60" as="geometry" />
        </mxCell>
        <mxCell id="3Qwjghfozt2sNwzA8H1o-5" value="RabbitMQ" style="rounded=1;whiteSpace=wrap;html=1;" vertex="1" parent="1">
          <mxGeometry x="250" y="210" width="350" height="60" as="geometry" />
        </mxCell>
        <mxCell id="3Qwjghfozt2sNwzA8H1o-6" value="" style="endArrow=classic;html=1;rounded=0;" edge="1" parent="1">
          <mxGeometry width="50" height="50" relative="1" as="geometry">
            <mxPoint x="299.65999999999997" y="320" as="sourcePoint" />
            <mxPoint x="300" y="270" as="targetPoint" />
          </mxGeometry>
        </mxCell>
        <mxCell id="3Qwjghfozt2sNwzA8H1o-7" value="Scheduler" style="rounded=0;whiteSpace=wrap;html=1;" vertex="1" parent="1">
          <mxGeometry x="375" y="320" width="100" height="60" as="geometry" />
        </mxCell>
        <mxCell id="3Qwjghfozt2sNwzA8H1o-8" value="Email Sender" style="rounded=0;whiteSpace=wrap;html=1;" vertex="1" parent="1">
          <mxGeometry x="500" y="320" width="100" height="60" as="geometry" />
        </mxCell>
        <mxCell id="3Qwjghfozt2sNwzA8H1o-9" value="Sql" style="shape=cylinder3;whiteSpace=wrap;html=1;boundedLbl=1;backgroundOutline=1;size=15;" vertex="1" parent="1">
          <mxGeometry x="395" y="430" width="60" height="80" as="geometry" />
        </mxCell>
        <mxCell id="3Qwjghfozt2sNwzA8H1o-10" value="Redis" style="shape=cylinder3;whiteSpace=wrap;html=1;boundedLbl=1;backgroundOutline=1;size=15;" vertex="1" parent="1">
          <mxGeometry x="270" y="430" width="60" height="80" as="geometry" />
        </mxCell>
        <mxCell id="3Qwjghfozt2sNwzA8H1o-11" value="" style="endArrow=classic;html=1;rounded=0;" edge="1" parent="1">
          <mxGeometry width="50" height="50" relative="1" as="geometry">
            <mxPoint x="424.65999999999997" y="320" as="sourcePoint" />
            <mxPoint x="425" y="270" as="targetPoint" />
          </mxGeometry>
        </mxCell>
        <mxCell id="3Qwjghfozt2sNwzA8H1o-12" value="" style="endArrow=classic;html=1;rounded=0;" edge="1" parent="1">
          <mxGeometry width="50" height="50" relative="1" as="geometry">
            <mxPoint x="549.66" y="270" as="sourcePoint" />
            <mxPoint x="549.9999999999999" y="320" as="targetPoint" />
          </mxGeometry>
        </mxCell>
        <mxCell id="3Qwjghfozt2sNwzA8H1o-19" value="" style="endArrow=classic;startArrow=classic;html=1;rounded=0;" edge="1" parent="1">
          <mxGeometry width="50" height="50" relative="1" as="geometry">
            <mxPoint x="299.65999999999997" y="430" as="sourcePoint" />
            <mxPoint x="299.65999999999997" y="380" as="targetPoint" />
          </mxGeometry>
        </mxCell>
        <mxCell id="3Qwjghfozt2sNwzA8H1o-20" value="" style="endArrow=classic;startArrow=classic;html=1;rounded=0;" edge="1" parent="1">
          <mxGeometry width="50" height="50" relative="1" as="geometry">
            <mxPoint x="424.65999999999997" y="430" as="sourcePoint" />
            <mxPoint x="424.65999999999997" y="380" as="targetPoint" />
          </mxGeometry>
        </mxCell>
        <mxCell id="3Qwjghfozt2sNwzA8H1o-21" value="" style="endArrow=classic;startArrow=classic;html=1;rounded=0;entryX=0.5;entryY=1;entryDx=0;entryDy=0;exitX=0.5;exitY=0;exitDx=0;exitDy=0;exitPerimeter=0;" edge="1" parent="1" source="3Qwjghfozt2sNwzA8H1o-9" target="3Qwjghfozt2sNwzA8H1o-4">
          <mxGeometry width="50" height="50" relative="1" as="geometry">
            <mxPoint x="410" y="430" as="sourcePoint" />
            <mxPoint x="375" y="390" as="targetPoint" />
          </mxGeometry>
        </mxCell>
      </root>
    </mxGraphModel>
  </diagram>
</mxfile>
